# xmcd CD database file
#
# Track frame offsets:
#	150
#	17045
#	40066
#	58634
#	83610
#	109409
#	128998
#	150624
#	175442
#	198434
#	215958
#	235505
#	258685
#
# Disc length: 3971 seconds
#
# Revision: 0
# Processed by: cddbd v1.5PL3 Copyright (c) Steve Scherf et al.
# Submitted via: CDex 1.51
#
DISCID=b60f810d
DTITLE=Bandari - Bandari
DYEAR=2000
DGENRE=New Age
TTITLE0=The Derry Air
TTITLE1=The Flight Of The Earls
TTITLE2=Spanci Hill
TTITLE3=Thousands Are Sailing
TTITLE4=My Love Is Like 4 Red Rose
TTITLE5=Fairytale Of New York
TTITLE6=Maggie
TTITLE7=The Old Man
TTITLE8=My Lagan Love
TTITLE9=Lament For The Wild Geese
TTITLE10=Cal
TTITLE11=The Town I Loved So Well
TTITLE12=Purinuy
EXTD=YEAR: 2000
EXTT0=
EXTT1=
EXTT2=
EXTT3=
EXTT4=
EXTT5=
EXTT6=
EXTT7=
EXTT8=
EXTT9=
EXTT10=
EXTT11=
EXTT12=
PLAYORDER=
